<?xml version="1.0" encoding="UTF-8"?>
<svg id="Layer_1" data-name="Layer 1" xmlns="http://www.w3.org/2000/svg" viewBox="0 0 377.74017 223.06677">
  <defs>
    <style>
      .cls-1 {
        fill: #fff;
      }
    </style>
  </defs>
  <path class="cls-1" d="M20.34285,32.53777h48.76936v5.62741c-9.22257.78146-12.6611,2.81314-12.6611,9.69133v53.92801c0,12.81774-.93439,22.84778-1.70755,30.73466-.93072,9.49409-3.59766,19.49313-10.00652,24.80784-7.65966,6.5655-24.55082,4.95044-29.86553,4.95044-7.97178,0-14.53672-4.06392-14.53672-8.90988,0-5.00202,5.47078-10.47279,9.5347-10.47279,1.56349,0,3.90786,2.18831,8.12842,6.09617,2.50101,2.18831,4.68932,3.1264,6.56493,3.1264,1.56349,0,3.59516-.3127,5.62741-2.50101,3.59516-3.7518,4.84595-8.28505,4.84595-24.07255V47.85651c0-7.81572-3.59516-9.22257-14.69335-9.69133v-5.62741Z"/>
  <path class="cls-1" d="M263.65896,162.37209v-7.32093c11.99728-1.01663,17.69174-1.83023,17.69174-12.60711V52.56117c0-10.57459-5.49069-11.79499-17.69174-12.60785v-7.32093h58.76895c18.50534,0,29.89279,2.64383,37.41749,6.71035,12.20105,6.7111,17.89477,17.69174,17.89477,30.09656,0,13.42145-4.88012,22.16581-13.42145,29.2837-10.57459,8.94665-27.04593,12.81162-45.95808,12.81162-2.84686,0-5.89675,0-8.74362-.20451v31.11393c0,10.37082,3.45669,11.18442,18.9114,12.60711v7.32093h-64.86948ZM309.61703,101.36684c0,1.21966.20303,1.62572,1.21966,2.03326,1.2204.40606,4.88086.60909,7.52396.60909,18.91214,0,29.89353-9.35419,29.89353-34.56989,0-22.57187-11.38819-29.48599-26.0293-29.48599-5.69447,0-8.54133.81286-10.37156,2.03326-1.62646.8136-2.23629,2.64383-2.23629,6.10052v53.27974Z"/>
  <path class="cls-1" d="M216.49994,161.55478l-13.15946-14.74491c-7.19641,6.40167-13.73695,12.96797-23.18226,16.1249-9.65101,3.22568-25.43787,2.39863-35.80525,1.88254-2.06303-.1027-5.15207.37008-6.97977.01268-.87134-.17039-1.18026-.9915-1.62754-1.06306-1.09735-.17558-3.26311,1.00925-4.54234,1.08695-1.71689.10428-2.57891-.88189-4.08819-.88181-1.7903.0001-3.10343,1.56878-5.11872.64739-.8685-.39708-1.46596-2.08395-2.69538-2.25859-1.11491-.15837-5.04429,1.43554-6.56835,1.61946-3.55179.42862-5.11476-1.45202-6.11708-1.44628-.74796.00428-1.8155,1.21706-3.90594.9071-6.9097-1.02453-1.07814-11.33453,1.88477-11.72637,1.61956-.21418,2.77559,1.44054,4.49427.0164,3.28916-2.72547.85489-10.5349.58583-14.14296-.38988-5.22813,1.28225-10.25527.78183-15.9487-.62985-7.16607-4.1423-11.68223-4.02996-19.3021.11006-7.46537-6.31582-10.94817-4.75194-19.50837.26531-1.45223,2.41635-5.85543,3.49591-6.75341.5292-.44018.94461-.34402.83465.42037-.2907,2.02089-2.25684,4.81553-2.47369,7.37814-.13476,1.59246.23205,3.13521.70834,4.62743,2.90638,9.10584,10.15313,19.32026,13.66389,28.46725.94225,1.36373,5.04718,4.76901,6.54485,5.4455,1.65848.74914,1.28816-2.66384,1.24704-3.71562-.17734-4.53498-1.35115-9.31961-.31688-13.81094.06672-.28975.64058-1.57852,1.11743-1.54102.33894,4.92198,1.28851,10.03077,1.24917,14.97918-.05083,6.39416-2.16363,11.18173-2.86277,16.81068-.71824,5.78278,1.6649,11.97552-.82895,17.57832.12496.60778,3.98108.87539,4.08674,2.6867-1.37905.48741-2.81644-.93825-3.87938-.83206-2.57006.25675-3.9607,7.63748-1.16044,8.98166,1.09511.31055,2.22911-.82998,3.61139-.8147,1.2095.01338,1.89804.74486,3.24426.89649,2.67021.30077,4.76205-.97767,6.17624-.89552.93937.05457,3.26111,1.95207,3.83973.19243.33001-1.00358-.08362-6.99575-.81594-7.47005l-4.96403.28582-4.40851-1.56438c3.65073-2.74272,5.4601,2.71924,9.04895.14576-.7998-3.18397-3.38785-5.50139-4.82205-8.68451-5.33479-11.84026-3.0121-27.92844,5.20935-37.98462,2.76802-3.38574,6.35969-5.01018,7.75566-9.46313,1.78188-5.68397.87854-11.02112-3.66436-14.93249,5.42648.5162,10.68743,5.10516,13.12809,9.83226l2.44598-1.43142c-2.89728-4.31453-6.31929-8.25554-9.01803-12.70499-4.30166-7.09221-12.03117-25.78312-19.26859-28.69752-1.8313-.73744-3.37867-.69252-5.32835-.62082,2.27194-2.26955,5.53206-3.57745,8.16486-5.5654,11.41664-8.62033,14.53346-20.28623,5.13508-32.11837-6.42791-8.09245-22.44867-13.66599-31.80733-8.5782-2.45151,1.33275-4.0738,4.48918-6.89009,5.08929-3.35701.71534-6.44591-1.08267-9.80672-.57903-.37784,5.1231-3.75653,7.10116-8.61722,6.14197-1.28728,2.73455,1.18041,7.7629,3.67177,9.14075,1.82571,1.00971,8.9818,1.8851,11.24306,1.91538,1.41211.01891,4.47598-1.40024,3.2101.78893-2.18535.70326-4.16361,1.02421-6.48723.80837-1.1785-.10947-5.06252-1.45646-5.76295-.86486-2.19198,1.8514,1.42937,6.15062,3.12096,7.19739,1.03832.64252,11.50792,4.31215,12.48252,4.35692,2.61341.12005,5.65846-1.49042,7.99013-2.48446.53817,3.75934-2.12807,6.74488-3.16035,10.15886-.88984,2.9429-.72212,6.55448-1.88173,9.18679-.46597,1.05774-2.51391,4.25489-3.56352,3.81599,2.07742-2.78034,3.58486-5.439,3.2927-9.04015-.22459-2.76835-1.68912-7.4649-3.7279-9.38688-5.26709-4.96532-14.48959-2.01127-16.69184-11.18714-.23351-.97294.11447-2.02193-.30703-2.97247-.50138-1.1307-3.04514-2.4463-3.97179-3.81777-1.87497-2.77503-1.9458-11.78111.92815-13.99353,2.00877-1.54639,9.27749-1.2368,12.06578-1.04713,2.0611.1402,3.71857,1.32111,6.05552.7142,1.4594-.379,5.18718-4.59684,7.44951-5.6666,2.94612-1.3931,7.81945-1.80322,11.0958-1.60639,10.39503.6245,23.67453,9.79335,26.73163,20.00677,2.25622,7.53778-1.09321,11.53157-.70667,18.33691.14714,2.59053,1.00491,5.48894,1.66003,7.97485.71187.66292,3.10395-3.61977,3.50582-4.08405,10.01521-11.57042,32.1697-14.33283,44.24854-4.51587,2.47196,2.00906,3.91588,4.8468,6.36029,6.5499-.20898-5.62021,5.19258-7.88136,8.20647-11.68251l3.47839-5.53185c3.58213,6.2022,6.21679,18.44262-1.8381,22.13154-.55304-3.04972,2.41354-5.16898,2.84237-8.01715.4615-3.06516-.27121-5.92562-.79594-8.79025-1.01163-1.07062-2.89131,2.95887-3.41897,3.55251-1.20734,1.35831-3.4883,2.56367-4.77081,4.04266-4.81187,5.54905-.87125,11.9242-1.2371,18.23061.71065.18489.81946-.29471,1.23067-.61021,1.61293-1.23749,3.15425-3.46063,4.8253-4.69946,8.71869-6.46363,21.49561-5.8026,31.33697-2.35504,1.22163.42795,5.15472,1.45039,3.94354,3.49932-.17131.2898-4.85819,2.74187-5.80232,3.41699-10.40816,7.44248-12.60595,17.62013-27.52563,18.80127-4.37368.34625-8.85644-1.24018-12.66821-3.24336-4.20503,5.08526-8.77563,8.80167-14.23552,12.42084-1.35957.90121-5.13905,2.39873-5.62936,3.81429-.57329,1.6551.60802,1.23565,1.14977,1.94079,8.59673,11.18941,17.61804,23.05774,27.08653,33.50831.73692.81336,1.56205,2.02001,2.64712,2.00261.74644.0236,1.35717-1.86359,1.63008-2.5019,2.47224-5.7824,5.0808-15.44367,2.01342-21.26903-.7557-1.43517-3.15044-4.19758-4.88779-2.91782l-.19693-.80829c3.32009-1.10204,6.35029.27655,7.94599,3.32506,2.56075,4.89221,1.08015,11.1763.25718,16.34523,1.09557.22786.70395-.28554,1.01597-.80898,3.17998-5.33473,2.39532-17.34426-3.73392-20.45476-1.27404-.64656-2.46787-.09907-3.42639-1.07543.02051-.63381,2.89751-1.3166,3.52084-1.3876,1.38236-.15745,3.3673.33786,4.07415.22834,2.29582-.35572-2.53845-3.24608-3.40754-3.44528-1.26521-.29-2.57403.14026-3.78357-.31252,2.51479-1.97333,6.93789-2.18114,10.06525-1.86849,3.26466.32638,5.70191,2.30941,7.16336,5.13612,5.09705,9.85858-4.63952,22.14044-9.03215,30.7449.22687,1.27444,4.04937-.49377,4.73951-.58295,1.42154-.1837,4.72176-.20271,6.13531-.02317.57029.07243,1.18661.21972.60617.81457-1.75338.21075-3.4534.84271-5.15498,1.20468-1.86024.39572-3.38852.05832-5.46151,1.09859-1.0783.54111-5.22167,4.07967-4.92046,5.20579.0493.1843,2.03284,2.52736,2.40691,2.96112,2.60403,3.01956,7.034,7.40089,10.04544,10.04337,7.5971,6.66631,16.62847,8.2942,26.45738,9.41742v5.73901h-36.69697ZM187.35663,44.55348c-6.42622-8.0724-19.33656-6.34101-24.37572,2.41482-4.31676,7.50062-2.27478,15.91772,1.50156,23.11687.95151,1.81394,8.29381,13.24789,9.44921,13.55053,12.68392-5.34556,18.83645-16.32069,17.30876-30.05423-.35453-3.18715-1.97341-6.62821-3.8838-9.02799ZM238.43471,52.92921c-11.66559-3.10781-23.07399-3.8381-31.55924,5.94927-1.45229,1.67515-6.38409,8.86197-6.56906,10.68888-.20693,2.04377,1.61696,2.32661,3.21253,2.89303,4.84249,1.71907,10.09297,1.08078,14.77265-.9386,6.50432-2.80674,9.48274-9.15226,14.73145-13.65526,1.21307-1.04072,4.32682-2.75065,4.99502-3.51611.43527-.49862.52503-.74841.41665-1.42121ZM164.49235,98.56663c-1.99898-2.3103-3.28287-.71536-5.1955.87883-10.03775,8.36652-12.615,26.26937-7.52614,37.86923.18047.41136,1.90829,4.12846,2.60873,3.33162-.24848-5.16297,1.16904-10.0561,3.77211-14.4707,1.87935-3.18722,5.82588-8.30231,9.7588-8.48106-.04335,1.6798-1.7818,2.52045-2.62889,3.72141-3.23742,4.58984-4.33313,8.91167-3.52528,14.52666.08708.60526-.01699,1.01998.62082,1.41803,1.63911-1.92284,2.3528-4.52876,4.51226-6.13864l-1.02496,2.86539,2.04389-1.22764-1.23151,3.68839-1.6325-1.22748c.37345,1.40644-.73532,2.75853-.79511,3.91932-.16346,3.17329,2.70534,8.34112,5.1083,10.41686,4.43178,3.82829,8.43773,3.36662,13.82093,1.94979,5.72346-1.50638,11.03277-5.09151,14.96012-9.41573l.11173-1.26025c-9.38698-11.75512-19.41582-23.08008-28.68933-34.92975-1.65978-2.12086-3.53192-5.65843-5.06847-7.43429ZM108.54762,161.86849c1.60848,1.24388,1.98288-.169,2.81873-.48481,2.32501-.87846,4.10721-.75398,5.17179-3.43472,1.95307-4.91811.50174-8.71851.10431-13.38913-.62706-7.3693,1.15719-17.21984-.00823-24.17762-.28039-1.67398-3.70336-7.59203-5.4902-7.62227-.37207.18725-.55967,1.06194-.55869,1.43219.00834,3.15887,1.60244,7.52824,1.60235,11.08418-.00007,2.80611-1.30275,6.29779-1.30243,9.01814.00053,4.4608,3.87894,15.12736-.81238,18.42081-2.29329,1.60996-3.36145.49337-5.092.6372-1.8418.15309-4.33638,6.04801-3.39967,7.70594.56711,1.00374,3.44928,1.23041,4.41281.28614.84315-.82631.60973-3.24065,2.05322-3.06956l.50039,3.59351Z"/>
  <path class="cls-1" d="M227.77403,118.51054l2.45337.61651c-.03863,1.23805-5.78176,1.77063-5.74961-.00184,1.30516-2.27085,3.46533-4.64407,4.40504-7.0897,3.82302-9.94952,3.73577-22.95076-7.98666-27.02357-5.62814-1.95543-14.73181.4655-17.66296,5.89043-.69985,1.29528-1.86197,6.69703.14185,6.70777.35084.00188,2.06584-5.70777,4.71748-4.50933.05696.58896-.56594.35936-.95874.9062-2.77139,3.85816-.97508,4.86153-1.49954,8.3212-.07269.47949.19965.79153-.61901.61406-.3228-.06998-2.74089-.92122-3.03914-1.06419-4.80058-2.30118-3.51869-9.54424-.85151-13.08532,5.7434-7.62523,19.12549-9.16164,26.43694-3.06597,7.55567,6.29928,6.42336,18.56693,3.09257,26.84981-.88097,2.19075-2.3508,3.81788-2.88008,5.93394Z"/>
  <path class="cls-1" d="M139.62843,27.0981l1.2204-.00198c.88293.85336-1.67884,6.16786-2.44805,7.18769-1.24948,1.65657-7.29505,4.68885-9.33475,5.01277-5.13059.81477-14.52701.65327-15.5907-5.94539-.88885-5.51402,4.92837-10.85711,6.48475-15.4564,1.2053-3.56181.16361-8.49455,3.87755-10.47083.57971.58523-.47607,1.11738-.60894,1.85083-.47981,2.64865-.266,5.43926-1.03018,8.39835-1.45795,5.64552-7.88017,12.98031-.97014,16.94991,7.56089,4.3435,17.29406,1.91118,18.40006-7.52494Z"/>
  <path class="cls-1" d="M112.32854,8.89378c.39277.53684,1.29695.79664,1.45893,1.39271-3.63192-1.16781-7.57426,1.79768-9.83812-2.04095,1.61569.27016,4.04275-2.66053,5.1163-2.71213,1.92945-.09273,2.32701,2.0812,3.2629,3.36036Z"/>
  <path class="cls-1" d="M109.27716,54.56156c-.03942,4.64465-4.37899,9.58881-9.01622,10.2478l5.72901-5.9515,2.05539-4.01134,1.23182-.28495Z"/>
  <path class="cls-1" d="M117.48178,98.42357c-.55945-4.32793,1.00081-9.23183,4.91395-11.47594-.01985,2.30539-1.64986,4.14254-2.52952,6.28034-.21923.53278-1.48468,6.23273-2.38443,5.1956Z"/>
  <path class="cls-1" d="M105.99691,70.14257c.74513.74372-3.48198,5.5237-4.09129,6.35865-.70199.96194-.96558,3.01602-2.46473,3.06566-1.1086-1.30631,3.8074-9.86581,6.55603-9.42431Z"/>
  <path class="cls-1" d="M229.7652,122.66822l.06156,1.17096-7.78939-.41c-.17778-.93663.05786-.6542.52298-.91416,2.07804-1.16141,5.15782-.97469,7.20485.1532Z"/>
  <path class="cls-1" d="M208.91254,41.4476l-4.50398,8.19445c-.579-1.38825,2.91302-9.65024,4.50398-8.19445Z"/>
  <path class="cls-1" d="M141.19787,19.36998l.47019,1.98752-1.63666-.40493c.4615.73735,1.78435,3.50002.00382,3.27644l-2.05244-4.91763,3.21509.05861Z"/>
  <path class="cls-1" d="M149.0491,83.25625c-.82218-.33794-5.70673-3.14794-5.72996-3.48234-.09967-1.43494,4.75925.69821,5.35104,1.61052.40507.62445.45361,1.15165.37892,1.87181Z"/>
  <path class="cls-1" d="M119.94392,104.1646c.60704-2.90027-.42035-6.73691,2.45182-8.60843-.31938,2.40181-.87986,4.88588-1.62486,7.18478-.17435.53801-.00618,1.27721-.82696,1.42366Z"/>
  <path class="cls-1" d="M101.89885,68.90657l4.09601-3.6852c.32015,2.64999-1.79808,3.51764-4.09601,3.6852Z"/>
  <path class="cls-1" d="M217.52495,59.07652c-3.29902,3.843-7.97872,6.13382-12.29658,8.60423-.48823-.54019,3.22272-4.20658,3.79658-4.62991,2.40447-1.77374,5.44863-3.70646,8.5-3.97432Z"/>
  <path class="cls-1" d="M229.00355,55.38717c-.13356.46607-1.98662,1.0642-2.35033,1.12844-.9928.17537-1.9807.10768-2.97583.09302,1.162-1.74317,3.54288-1.15856,5.32616-1.22146Z"/>
  <g>
    <path class="cls-1" d="M0,209.31759v-1.38008l7.5135-1.02231v1.27782c0,4.85576,2.50435,7.71818,6.54232,7.71818,5.41774,0,5.77551-5.16239,5.77551-8.1782v-25.40246h7.61576v24.17578c0,4.54928,0,16.56047-12.98237,16.56047-8.07579,0-14.46471-4.59995-14.46471-13.74918Z"/>
    <path class="cls-1" d="M32.60963,208.09075c0-8.79116,5.9289-15.23122,14.26019-15.23122,7.10445,0,13.74903,4.70221,13.74903,15.18024v1.94221h-20.85364c.61342,4.34476,3.83345,6.64473,7.56463,6.64473,2.91339,0,5.46887-1.63558,6.69556-4.54913l6.69571,2.70902c-1.89108,4.70221-6.69571,8.28016-13.34014,8.28016-8.43355,0-14.77135-5.92905-14.77135-14.97602ZM46.81869,198.99295c-3.68005,0-5.98003,2.55548-6.69571,6.08229h13.28916c-.51116-4.3446-3.37342-6.08229-6.59345-6.08229Z"/>
    <path class="cls-1" d="M65.98546,193.67732h7.05332v4.39558h.20452c1.43106-2.76,4.14008-5.21337,8.0245-5.21337.86892,0,1.78897.15324,2.76015.511v8.02466c-1.12457-.40889-2.60676-.56229-3.47568-.56229-6.64458,0-7.41124,6.18455-7.41124,10.32494v11.04001h-7.15558v-28.52053Z"/>
    <path class="cls-1" d="M85.7652,207.98864c0-8.84245,6.03131-15.12911,14.72021-15.12911s14.72021,6.28666,14.72021,15.12911c0,8.89343-6.03131,15.07813-14.72021,15.07813s-14.72021-6.18471-14.72021-15.07813ZM107.74326,207.98864c0-4.90674-2.96437-8.28016-7.25785-8.28016s-7.30898,3.42455-7.30898,8.28016c0,4.80478,3.0155,8.22903,7.30898,8.22903s7.25785-3.42425,7.25785-8.22903Z"/>
    <path class="cls-1" d="M118.62927,208.09075c0-8.79116,5.92905-15.23122,14.26004-15.23122,7.10476,0,13.74934,4.70221,13.74934,15.18024v1.94221h-20.85379c.61327,4.34476,3.83329,6.64473,7.56463,6.64473,2.91324,0,5.46887-1.63558,6.69571-4.54913l6.69571,2.70902c-1.89123,4.70221-6.69571,8.28016-13.34029,8.28016-8.43355,0-14.77135-5.92905-14.77135-14.97602ZM132.83818,198.99295c-3.6799,0-5.97988,2.55548-6.69541,6.08229h13.28885c-.511-4.3446-3.37312-6.08229-6.59345-6.08229Z"/>
    <path class="cls-1" d="M152.00495,193.67732h7.05332v4.19121h.10226c2.09545-3.42455,5.36661-5.009,8.84229-5.009,5.26465,0,9.96687,3.57779,9.96687,11.34679v17.99153h-7.15558v-14.82263c0-3.78216-.97118-7.66674-5.36692-7.66674-3.37342,0-6.28666,2.35111-6.28666,7.769v14.72037h-7.15558v-28.52053Z"/>
    <path class="cls-1" d="M195.29607,212.53777c0-5.00915,3.42425-8.4337,7.30898-10.98933-2.24915-2.55548-4.44686-5.77551-4.44686-9.60895,0-5.57114,4.498-10.42674,11.44906-10.42674,7.30898,0,11.24453,5.36661,11.24453,10.32448s-4.03782,8.1779-7.81998,10.47803l5.36661,5.62227c.86892-1.94221,1.53362-3.93571,2.14689-6.28682l6.74684,1.32895c-.97118,3.83345-2.19802,7.20702-3.78247,10.06913l8.84229,9.09795h-9.50669l-3.6799-3.73103c-3.01581,2.96437-6.64458,4.65108-11.14258,4.65108-7.25785,0-12.72672-4.14008-12.72672-10.529ZM214.46284,213.66204l-7.66659-7.769c-2.55563,1.68671-4.14008,3.32229-4.14008,5.62242,0,2.96437,2.5045,4.90674,5.92875,4.90674,2.30028,0,4.24234-1.02231,5.87792-2.76015ZM213.3897,192.19498c0-2.55548-1.68671-4.24219-3.93586-4.24219-2.19771,0-3.73103,1.63558-3.73103,3.93556,0,2.35111,1.53332,4.39558,3.27116,6.28682,2.91324-1.89123,4.39573-3.47568,4.39573-5.98018Z"/>
    <path class="cls-1" d="M245.69194,182.33053h15.38461c3.22003,0,13.85129,1.12442,13.85129,12.67559,0,11.75584-10.78466,13.13577-13.64677,13.13577h-7.97337v14.05597h-7.61576v-39.86732ZM259.69662,200.78177c2.86211,0,7.25785-.81779,7.25785-5.77566,0-4.80448-4.3446-5.6734-7.15558-5.6734h-6.49119v11.44906h6.38893Z"/>
    <path class="cls-1" d="M277.07412,214.73548c0-5.31563,4.19121-7.46252,9.20021-8.53581,6.44006-1.38008,8.48438-1.58445,8.48438-3.83345,0-2.09545-1.78897-3.6799-4.54882-3.6799-2.5045,0-4.65108,1.37993-5.57114,4.54882l-6.69571-2.24885c1.78897-5.92905,7.00219-8.12677,12.5225-8.12677,7.05332,0,11.50019,3.47553,11.50019,10.12011v10.32479c0,4.65108.35761,6.64458.91975,8.89343h-7.10445c-.40874-1.22653-.56214-2.40224-.56214-3.73103h-.10226c-1.48219,2.75985-4.75335,4.59995-8.48468,4.59995-4.85561,0-9.55782-2.76015-9.55782-8.33129ZM294.80984,211.46432v-2.30013c-1.43106.61327-4.03782,1.27782-5.57114,1.5846-2.29998.56214-4.3446,1.63558-4.3446,3.78216,0,2.04463,1.63558,3.01581,3.8336,3.01581,3.78216,0,6.08214-3.1689,6.08214-6.08244Z"/>
    <path class="cls-1" d="M305.23628,193.67732h8.1779c1.94206,6.38893,3.88443,12.88011,5.82679,19.26919h.15309c2.14689-6.44021,4.24234-12.82913,6.38923-19.26919h6.28666c2.09545,6.38893,4.24234,12.88011,6.33779,19.26919h.10226c1.94236-6.38908,3.98669-12.88026,5.92905-19.26919h8.12677l-9.40473,28.52053h-8.6889c-1.8401-5.82679-3.68021-11.8581-5.46887-17.787h-.10226c-1.89123,5.87807-3.8336,11.90908-5.82679,17.787h-8.38242l-9.45556-28.52053Z"/>
    <path class="cls-1" d="M353.68948,215.04227l6.64458-2.14689c1.27766,3.1692,3.6799,4.29347,5.72422,4.29347,1.68671,0,3.73134-.6644,3.73134-2.70902,0-2.04432-2.14658-2.70872-4.03782-3.27116l-3.0155-.91975c-3.57794-1.0736-7.71802-3.22033-7.71802-8.48483,0-5.46903,4.59995-8.94456,10.73353-8.94456,5.72453,0,9.71121,3.1689,10.88692,7.20671l-6.59345,2.14674c-.6647-1.89108-1.9935-3.52666-4.498-3.52666-1.99319,0-3.37342,1.07329-3.37342,2.65774,0,2.04447,2.70902,2.91339,5.009,3.57779l2.19771.61342c2.81129.81779,8.02481,2.24885,8.02481,8.28016,0,5.62227-4.39573,9.25134-11.29597,9.25134-6.49119,0-11.09114-3.27116-12.41993-8.0245Z"/>
  </g>
</svg>