<?xml version="1.0" encoding="UTF-8"?>
<svg id="Layer_1" data-name="Layer 1" xmlns="http://www.w3.org/2000/svg" viewBox="0 0 134 113">
  <defs>
    <style>
      .cls-1 {
        fill: #fff;
      }

      .cls-2 {
        fill: #262626;
      }

      .cls-3 {
        opacity: .5;
      }
    </style>
  </defs>
  <rect class="cls-2" width="134" height="113"/>
  <path class="cls-1" d="M29.97487,83.25656V29.18774c0-.2255.1828-.4083.4083-.4083h6.76334c.12106,0,.23587.05372.31345.14665l32.41953,38.8379c.24461.29304.72175.12007.72175-.26165v-14.40393c0-.2255.1828-.4083.4083-.4083l17.87779-.04146c.04346,0,.14672-.00436.18657-.0217l1.15608-.2442,1.10834-.42696.95379-.54899.60284-.45488.64566-.60925.45937-.53578.63241-.95519.44876-.96167.3338-1.14081.11971-.78679.03586-.56137-.02676-.65338c.01799-.04047-.10407-.87304-.10407-.91732l-.18252-.7487-.32415-.87624c0-.03402-.30477-.59676-.31552-.62903l-.46392-.72406-.44643-.55762-.58927-.59705-.50163-.41651-.63023-.42957c-.0089-.01113-.553-.30088-.56332-.31071l-.59427-.26326-.67945-.22873c-.02847-.02847-.93234-.18203-.96935-.19789l-.59888-.05943c-.0394-.01688-.47536-.02467-.51822-.02467l-22.26353.03787c-.3482,0-.53662.40788-.31088.673l37.90052,44.51412c.22573.26512.03732.673-.31088.673h-11.00482c-.12003,0-.23397-.05281-.31155-.1444L45.96128,29.45165c-.22475-.26532-.03616-.67221.31155-.67221l43.87642.23676c.05467,0,3.25544.90746,3.30578.92876l1.43151.68624c.01784.00915,1.79404,1.10577,1.81188,1.11491l1.45019,1.161c.00678.00441,1.1428,1.13885,1.14958,1.14326l1.2778,1.59634c.02742.01904.54661.84371.56859.86883l.63087,1.13616.50738,1.11107c.02247.02649.27269.7219.28776.7532l.25097.77205.23442.87962c.02226.04081.17789.85267.18523.89857l.11406.74919.08921.89114c.00082.00547.04185.88291.04239.88841l-.00056.15703c.00049.01931.00007.70544.00056.72476l-.06031.81002-.1107.952-.2912,1.49114-.31487,1.11006c-.00289.01357-.26806.75706-.27095.77063l-.42705,1.01549c-.00488.01828-.46297.92121-.47103.93833l-.45848.78913-.32137.49803-.52364.73446c-.01531.02558-.16183.20442-.17713.23l-1.04943,1.20933c-.00758.00914-.25822.26176-.2658.2709l-1.09035.99105c-.02442.02697-.39441.32095-.42509.34052l-1.04383.74346-1.68062.96011c-.01045.0056-.27871.13364-.28915.13924l-1.38172.57123c-.03719.01791-.76918.26117-.81002.26717l-1.19095.30846-1.8105.28804c-.02042.00154-.14782.01459-.16824.01613l-2.10363.07097h-.98701s-5.34582-.21102-5.34582-.21102c-.23164-.00914-.42441.17617-.42441.40799v22.06693c0,.2255-.1828.4083-.4083.4083h-8.3584c-.12181,0-.23725-.05438-.31482-.1483l-30.50793-36.93935c-.24375-.29514-.72312-.12278-.72312.26v36.41934c0,.2255-.1828.4083-.4083.4083h-8.8895c-.2255,0-.4083-.1828-.4083-.4083Z"/>
  <path class="cls-3" d="M84.61949,60.9475l-4.62595,8.68056.00286,3.16229-9.39479-11.05253-.00279-3.14289c2.32429-1.99627,4.66096-3.906,6.98526-5.90226.00479.00576,2.97717-.00831,2.98197-.00255l7.54351,8.30678-2.34578-.00422-1.14428-.04517Z"/>
  <polygon class="cls-1" points="65.64471 52.6887 87.13421 78.05789 94.00001 71.96491 73.0148 47.3178 65.64471 52.6887"/>
</svg>